<mxfile host="app.diagrams.net" modified="2024-05-18T14:40:02.870Z" agent="Mozilla/5.0 (Macintosh; Intel Mac OS X 10_15_7) AppleWebKit/605.1.15 (KHTML, like Gecko) Version/17.4 Safari/605.1.15" etag="3CMfShFRpKUmISTfl_h-" version="24.4.4" type="device">
  <diagram name="Strona-1" id="IC27UAtEEAQvoF1e5Sze">
    <mxGraphModel dx="1122" dy="659" grid="1" gridSize="10" guides="1" tooltips="1" connect="1" arrows="1" fold="1" page="1" pageScale="1" pageWidth="827" pageHeight="1169" math="0" shadow="0">
      <root>
        <mxCell id="0" />
        <mxCell id="1" parent="0" />
        <mxCell id="X52QDVxwgDwsQAAA-q0Z-16" style="edgeStyle=orthogonalEdgeStyle;rounded=0;orthogonalLoop=1;jettySize=auto;html=1;exitX=1;exitY=0.5;exitDx=0;exitDy=0;entryX=0;entryY=0.75;entryDx=0;entryDy=0;" edge="1" parent="1" source="X52QDVxwgDwsQAAA-q0Z-31" target="X52QDVxwgDwsQAAA-q0Z-32">
          <mxGeometry relative="1" as="geometry">
            <Array as="points">
              <mxPoint x="210" y="50" />
              <mxPoint x="210" y="50" />
            </Array>
            <mxPoint x="140.6800000000001" y="167.5" as="sourcePoint" />
            <mxPoint x="335" y="432.5" as="targetPoint" />
          </mxGeometry>
        </mxCell>
        <mxCell id="X52QDVxwgDwsQAAA-q0Z-19" style="edgeStyle=orthogonalEdgeStyle;rounded=0;orthogonalLoop=1;jettySize=auto;html=1;" edge="1" parent="1">
          <mxGeometry relative="1" as="geometry">
            <mxPoint x="290" y="170" as="sourcePoint" />
            <mxPoint x="290" y="100" as="targetPoint" />
          </mxGeometry>
        </mxCell>
        <mxCell id="X52QDVxwgDwsQAAA-q0Z-26" value="&lt;span style=&quot;font-size: 12pt; font-family: Calibri, sans-serif;&quot;&gt;Azure Stream&amp;nbsp;&lt;/span&gt;&lt;span style=&quot;font-family: -webkit-standard; font-size: medium;&quot;&gt;&lt;/span&gt;&lt;b&gt;&lt;span style=&quot;font-size:11.0pt;line-height:107%;&lt;br/&gt;font-family:&amp;quot;Calibri&amp;quot;,sans-serif;mso-ascii-theme-font:minor-latin;mso-fareast-font-family:&lt;br/&gt;Calibri;mso-fareast-theme-font:minor-latin;mso-hansi-theme-font:minor-latin;&lt;br/&gt;mso-bidi-font-family:&amp;quot;Times New Roman&amp;quot;;mso-bidi-theme-font:minor-bidi;&lt;br/&gt;mso-ansi-language:PL;mso-fareast-language:EN-US;mso-bidi-language:AR-SA&quot;&gt;&lt;br&gt;&lt;/span&gt;&lt;/b&gt;" style="text;whiteSpace=wrap;html=1;" vertex="1" parent="1">
          <mxGeometry x="265" y="180" width="70" height="60" as="geometry" />
        </mxCell>
        <mxCell id="X52QDVxwgDwsQAAA-q0Z-27" value="&lt;span style=&quot;font-size: 12pt; font-family: Calibri, sans-serif;&quot;&gt;Azuze Machine Learnig&lt;/span&gt;&lt;span style=&quot;font-family: -webkit-standard; font-size: medium;&quot;&gt;&lt;/span&gt;" style="text;whiteSpace=wrap;html=1;" vertex="1" parent="1">
          <mxGeometry x="450" y="20" width="70" height="60" as="geometry" />
        </mxCell>
        <mxCell id="X52QDVxwgDwsQAAA-q0Z-30" style="edgeStyle=orthogonalEdgeStyle;rounded=0;orthogonalLoop=1;jettySize=auto;html=1;entryX=0;entryY=0.5;entryDx=0;entryDy=0;" edge="1" parent="1" source="X52QDVxwgDwsQAAA-q0Z-27" target="X52QDVxwgDwsQAAA-q0Z-33">
          <mxGeometry relative="1" as="geometry">
            <mxPoint x="448.72" y="300.00189" as="sourcePoint" />
            <mxPoint x="646.3199999999999" y="300.00189" as="targetPoint" />
          </mxGeometry>
        </mxCell>
        <mxCell id="X52QDVxwgDwsQAAA-q0Z-31" value="&lt;span style=&quot;font-size: 12pt; font-family: Calibri, sans-serif;&quot;&gt;Azure IoT Hub&amp;nbsp;&lt;/span&gt;&lt;span style=&quot;font-family: -webkit-standard; font-size: medium;&quot;&gt;&lt;/span&gt;&lt;b&gt;&lt;span style=&quot;font-size:11.0pt;line-height:107%;&lt;br/&gt;font-family:&amp;quot;Calibri&amp;quot;,sans-serif;mso-ascii-theme-font:minor-latin;mso-fareast-font-family:&lt;br/&gt;Calibri;mso-fareast-theme-font:minor-latin;mso-hansi-theme-font:minor-latin;&lt;br/&gt;mso-bidi-font-family:&amp;quot;Times New Roman&amp;quot;;mso-bidi-theme-font:minor-bidi;&lt;br/&gt;mso-ansi-language:PL;mso-fareast-language:EN-US;mso-bidi-language:AR-SA&quot;&gt;&lt;br&gt;&lt;/span&gt;&lt;/b&gt;" style="text;whiteSpace=wrap;html=1;" vertex="1" parent="1">
          <mxGeometry x="50" y="20" width="90" height="60" as="geometry" />
        </mxCell>
        <mxCell id="X52QDVxwgDwsQAAA-q0Z-32" value="&lt;span style=&quot;caret-color: rgb(0, 0, 0); color: rgb(0, 0, 0); font-size: 12pt; font-style: normal; font-variant-caps: normal; font-weight: 400; letter-spacing: normal; orphans: auto; text-align: start; text-indent: 0px; text-transform: none; white-space: normal; widows: auto; word-spacing: 0px; -webkit-text-stroke-width: 0px; text-decoration: none; font-family: Calibri, sans-serif;&quot;&gt;Azuze Data Lake Storage&lt;/span&gt;&lt;span style=&quot;caret-color: rgb(0, 0, 0); color: rgb(0, 0, 0); font-family: -webkit-standard; font-size: medium; font-style: normal; font-variant-caps: normal; font-weight: 400; letter-spacing: normal; orphans: auto; text-align: start; text-indent: 0px; text-transform: none; white-space: normal; widows: auto; word-spacing: 0px; -webkit-text-stroke-width: 0px; text-decoration: none; display: inline !important; float: none;&quot;&gt;&lt;/span&gt;" style="text;whiteSpace=wrap;html=1;" vertex="1" parent="1">
          <mxGeometry x="260" y="20" width="80" height="40" as="geometry" />
        </mxCell>
        <mxCell id="X52QDVxwgDwsQAAA-q0Z-33" value="&lt;span style=&quot;caret-color: rgb(0, 0, 0); color: rgb(0, 0, 0); font-size: 12pt; font-style: normal; font-variant-caps: normal; font-weight: 400; letter-spacing: normal; orphans: auto; text-align: start; text-indent: 0px; text-transform: none; white-space: normal; widows: auto; word-spacing: 0px; -webkit-text-stroke-width: 0px; text-decoration: none; font-family: Calibri, sans-serif;&quot;&gt;Azure Monitor&lt;span class=&quot;Apple-converted-space&quot;&gt;&amp;nbsp;&lt;/span&gt;&lt;/span&gt;&lt;span style=&quot;caret-color: rgb(0, 0, 0); color: rgb(0, 0, 0); font-family: -webkit-standard; font-size: medium; font-style: normal; font-variant-caps: normal; font-weight: 400; letter-spacing: normal; orphans: auto; text-align: start; text-indent: 0px; text-transform: none; white-space: normal; widows: auto; word-spacing: 0px; -webkit-text-stroke-width: 0px; text-decoration: none; display: inline !important; float: none;&quot;&gt;&lt;/span&gt;" style="text;whiteSpace=wrap;html=1;" vertex="1" parent="1">
          <mxGeometry x="630" y="30" width="140" height="40" as="geometry" />
        </mxCell>
        <mxCell id="X52QDVxwgDwsQAAA-q0Z-34" value="&lt;span style=&quot;caret-color: rgb(0, 0, 0); color: rgb(0, 0, 0); font-size: 12pt; font-style: normal; font-variant-caps: normal; font-weight: 400; letter-spacing: normal; orphans: auto; text-align: start; text-indent: 0px; text-transform: none; white-space: normal; widows: auto; word-spacing: 0px; -webkit-text-stroke-width: 0px; text-decoration: none; font-family: Calibri, sans-serif;&quot;&gt;Azuze Functions&lt;span class=&quot;Apple-converted-space&quot;&gt;&amp;nbsp;&lt;/span&gt;&lt;/span&gt;&lt;span style=&quot;caret-color: rgb(0, 0, 0); color: rgb(0, 0, 0); font-family: -webkit-standard; font-size: medium; font-style: normal; font-variant-caps: normal; font-weight: 400; letter-spacing: normal; orphans: auto; text-align: start; text-indent: 0px; text-transform: none; white-space: normal; widows: auto; word-spacing: 0px; -webkit-text-stroke-width: 0px; text-decoration: none; display: inline !important; float: none;&quot;&gt;&lt;/span&gt;" style="text;whiteSpace=wrap;html=1;" vertex="1" parent="1">
          <mxGeometry x="220" y="310" width="160" height="40" as="geometry" />
        </mxCell>
        <mxCell id="X52QDVxwgDwsQAAA-q0Z-37" style="edgeStyle=orthogonalEdgeStyle;rounded=0;orthogonalLoop=1;jettySize=auto;html=1;exitX=1;exitY=0.75;exitDx=0;exitDy=0;entryX=0;entryY=0.5;entryDx=0;entryDy=0;" edge="1" parent="1" source="X52QDVxwgDwsQAAA-q0Z-32" target="X52QDVxwgDwsQAAA-q0Z-27">
          <mxGeometry relative="1" as="geometry">
            <Array as="points">
              <mxPoint x="380" y="50" />
              <mxPoint x="380" y="50" />
            </Array>
            <mxPoint x="150" y="60" as="sourcePoint" />
            <mxPoint x="270" y="60" as="targetPoint" />
          </mxGeometry>
        </mxCell>
        <mxCell id="X52QDVxwgDwsQAAA-q0Z-39" style="edgeStyle=orthogonalEdgeStyle;rounded=0;orthogonalLoop=1;jettySize=auto;html=1;" edge="1" parent="1">
          <mxGeometry relative="1" as="geometry">
            <mxPoint x="291" y="304" as="sourcePoint" />
            <mxPoint x="291" y="234" as="targetPoint" />
            <Array as="points">
              <mxPoint x="291" y="264" />
              <mxPoint x="291" y="264" />
            </Array>
          </mxGeometry>
        </mxCell>
        <mxCell id="X52QDVxwgDwsQAAA-q0Z-41" style="edgeStyle=orthogonalEdgeStyle;rounded=0;orthogonalLoop=1;jettySize=auto;html=1;entryX=0;entryY=0.5;entryDx=0;entryDy=0;" edge="1" parent="1">
          <mxGeometry relative="1" as="geometry">
            <mxPoint x="760" y="48.5" as="sourcePoint" />
            <mxPoint x="870" y="48.5" as="targetPoint" />
          </mxGeometry>
        </mxCell>
      </root>
    </mxGraphModel>
  </diagram>
</mxfile>
